<?xml version="1.0" standalone="no"?>
<!DOCTYPE svg PUBLIC "-//W3C//DTD SVG 20010904//EN"
 "http://www.w3.org/TR/2001/REC-SVG-20010904/DTD/svg10.dtd">
<svg version="1.0" xmlns="http://www.w3.org/2000/svg"
 width="265.000000pt" height="265.000000pt" viewBox="0 0 265.000000 265.000000"
 preserveAspectRatio="xMidYMid meet">
<metadata>
Created by potrace 1.11, written by Peter Selinger 2001-2013
</metadata>
<g transform="translate(0.000000,265.000000) scale(0.100000,-0.100000)"
fill="#000000" stroke="none">
<path d="M726 2590 c-8 -30 -40 -145 -71 -255 -30 -110 -60 -218 -67 -240 -6
-22 -12 -44 -14 -50 -1 -5 -9 -35 -18 -66 -9 -31 -18 -65 -21 -75 -2 -11 -29
-109 -60 -219 -66 -235 -114 -408 -125 -450 -4 -16 -27 -97 -50 -180 -48 -173
-159 -573 -165 -595 -2 -8 -31 -112 -64 -231 -34 -120 -61 -220 -61 -223 0 -3
101 -6 224 -6 257 0 224 -15 257 115 25 100 142 554 187 724 l37 145 222 113
222 113 11 -37 c37 -133 102 -370 105 -383 1 -8 26 -98 55 -200 28 -102 69
-250 91 -330 22 -80 47 -169 55 -198 8 -28 19 -52 24 -52 6 0 11 255 12 691
l3 691 125 65 c69 36 260 134 425 218 523 268 565 290 565 296 0 4 -98 62
-217 130 -120 68 -226 128 -235 134 -9 5 -34 20 -55 31 -61 34 -99 56 -273
156 -91 52 -185 106 -210 120 -25 14 -69 39 -97 56 l-53 31 0 -613 0 -613
-159 -81 -158 -81 -12 41 c-7 23 -14 48 -17 57 -2 9 -17 66 -34 126 -17 61
-45 160 -61 220 -49 179 -98 344 -130 435 -16 47 -62 184 -103 305 l-74 219
-16 -54z m274 -805 c44 -162 107 -389 125 -450 33 -111 35 -105 -53 -148 -43
-21 -114 -57 -158 -80 -43 -23 -104 -53 -135 -68 l-57 -27 15 56 c8 32 16 64
18 72 2 8 24 94 49 190 25 96 69 268 98 382 29 114 55 204 59 200 3 -4 21 -61
39 -127z"/>
</g>
</svg>
