<?xml version="1.0" standalone="no"?>
<!DOCTYPE svg PUBLIC "-//W3C//DTD SVG 20010904//EN"
 "http://www.w3.org/TR/2001/REC-SVG-20010904/DTD/svg10.dtd">
<svg version="1.0" xmlns="http://www.w3.org/2000/svg"
 width="512.000000pt" height="512.000000pt" viewBox="0 0 512.000000 512.000000"
 preserveAspectRatio="xMidYMid meet">
<metadata>
Created by potrace 1.14, written by Peter Selinger 2001-2017
</metadata>
<g transform="translate(0.000000,512.000000) scale(0.100000,-0.100000)"
fill="#000000" stroke="none">
<path  style="fill:#000000;"  d="M2495 4960 c-60 -22 -2052 -736 -2112 -757 -24 -8 -43 -20 -43 -26 0
-25 329 -2970 332 -2972 2 -1 72 -41 155 -89 84 -47 496 -280 915 -517 420
-238 777 -438 793 -446 30 -14 32 -13 900 477 479 271 902 510 942 533 54 31
73 47 77 66 13 65 328 2952 323 2957 -3 3 -254 95 -559 204 -304 108 -800 286
-1101 394 -302 108 -554 196 -560 195 -7 0 -34 -9 -62 -19z m85 -447 c12 -27
775 -1704 1186 -2606 112 -246 204 -452 204 -457 0 -7 -93 -9 -261 -8 l-261 3
-135 356 -136 356 -105 7 c-136 8 -888 8 -1023 0 l-105 -7 -135 -356 -136
-356 -262 -3 c-143 -1 -261 1 -261 6 0 5 158 355 350 778 193 423 509 1117
702 1542 194 424 355 772 358 772 4 0 13 -12 20 -27z"/>
<path style="fill:#000000;"  d="M2351 3083 c-112 -263 -206 -484 -208 -490 -4 -10 83 -13 417 -13
398 0 422 1 416 18 -29 77 -411 962 -415 962 -4 0 -98 -215 -210 -477z"/>
</g>
</svg>
